# xmcd
#
# Track frame offsets:
#	150
#	15545
#	44573
#	69713
#	105867
#	141215
#	164547
#	178987
#	207964
#	231422
#	262343
#	285094
#	300653
#
# Disc length: 4372
#
# Revision: 1
# Processed by: cddbd v1.5.1PL0 Copyright (c) Steve Scherf et al.
# Submitted via: EasyCDDAExtractor 8.0.2.1
# Normalized: r0:DSETVAR1
#
DISCID=be11120d
DTITLE=Various Artist - DEE JAY MIX CLUB 2005 MARZEC PART 4
DYEAR=2005
DGENRE=Dance
TTITLE0=HAIDUCII - I NEED A BOYFRIEND
TTITLE1=SVEN-R-G VS BASS-T - ON A PARTY TRIP(RMX)
TTITLE2=RACHEL MCFARLANE - LOVER
TTITLE3=ANACONDA - SOUND OF LOVE(PA PA PA)
TTITLE4=NIELS VAN GOGH - ONE WAY OUT
TTITLE5=WARP BROTHERS - SMELLS LIKE TEEN SPIRIT(RMX)
TTITLE6=LEONA - ARGUMENTY
TTITLE7=WHITE DOVES - FUNKYTOWN
TTITLE8=SONIQUE - WHY
TTITLE9=CAROLINA MARQUEZ - THE KILLER'S SONG
TTITLE10=EIGHT - SUPERNATURAL
TTITLE11=ACTIV - DOAR CU TINE
TTITLE12=MOUSSE T. FEAT EMMA LANFORD - RIGHT ABOUT NOW(RMX)
EXTD=
EXTT0=
EXTT1=
EXTT2=
EXTT3=
EXTT4=
EXTT5=
EXTT6=
EXTT7=
EXTT8=
EXTT9=
EXTT10=
EXTT11=
EXTT12=
PLAYORDER=
